<mxfile host="app.diagrams.net" agent="Mozilla/5.0 (Windows NT 10.0; Win64; x64) AppleWebKit/537.36 (KHTML, like Gecko) Chrome/134.0.0.0 Safari/537.36 Edg/134.0.0.0" version="26.1.1">
  <diagram id="07fea595-8f29-1299-0266-81d95cde20df" name="Page-1">
    <mxGraphModel dx="1040" dy="-1734" grid="1" gridSize="10" guides="1" tooltips="1" connect="1" arrows="1" fold="1" page="1" pageScale="1" pageWidth="1169" pageHeight="827" background="none" math="0" shadow="0">
      <root>
        <mxCell id="0" />
        <mxCell id="1" parent="0" />
        <mxCell id="644" value="&lt;font color=&quot;#ffffff&quot;&gt;&lt;span style=&quot;font-size: 30px;&quot;&gt;&lt;b&gt;quantmsio&lt;/b&gt;&lt;/span&gt;&lt;/font&gt;" style="shape=hexagon;perimeter=hexagonPerimeter2;whiteSpace=wrap;html=1;shadow=0;labelBackgroundColor=none;strokeColor=#23445D;fillColor=#23445D;gradientColor=none;fontFamily=Helvetica;fontSize=23;fontColor=#23445d;align=center;strokeWidth=3;" parent="1" vertex="1">
          <mxGeometry x="428.57894736842115" y="2764.7982456140344" width="311.84210526315786" height="259.86842105263156" as="geometry" />
        </mxCell>
        <mxCell id="645" value="" style="triangle;whiteSpace=wrap;html=1;shadow=0;labelBackgroundColor=none;strokeColor=none;fillColor=#FFFFFF;fontFamily=Helvetica;fontSize=17;fontColor=#23445d;align=center;rotation=90;gradientColor=none;flipV=1;flipH=1;opacity=20;" parent="1" vertex="1">
          <mxGeometry x="309.5" y="2782.6666666666665" width="72" height="152" as="geometry" />
        </mxCell>
        <mxCell id="646" value="Feature View" style="shape=hexagon;perimeter=hexagonPerimeter2;whiteSpace=wrap;html=1;shadow=0;labelBackgroundColor=none;strokeColor=#23445D;fillColor=#ffffff;gradientColor=none;fontFamily=Helvetica;fontSize=23;fontColor=#23445D;align=center;strokeWidth=3;" parent="1" vertex="1">
          <mxGeometry x="428.57894736842115" y="2504.6666666666665" width="311.84210526315786" height="259.86842105263156" as="geometry" />
        </mxCell>
        <mxCell id="647" value="&lt;font style=&quot;font-size: 23px&quot;&gt;PSM View&lt;/font&gt;" style="shape=hexagon;perimeter=hexagonPerimeter2;whiteSpace=wrap;html=1;shadow=0;labelBackgroundColor=none;strokeColor=#23445D;fillColor=#FFFFFF;gradientColor=none;fontFamily=Helvetica;fontSize=23;fontColor=#23445d;align=center;strokeWidth=3;" parent="1" vertex="1">
          <mxGeometry x="662.6578947368422" y="2634.1995614035086" width="311.84210526315786" height="259.86842105263156" as="geometry" />
        </mxCell>
        <mxCell id="648" value="&lt;font style=&quot;font-size: 23px&quot;&gt;AE View&lt;/font&gt;" style="shape=hexagon;perimeter=hexagonPerimeter2;whiteSpace=wrap;html=1;shadow=0;labelBackgroundColor=none;strokeColor=#23445D;fillColor=#FFFFFF;gradientColor=none;fontFamily=Helvetica;fontSize=23;fontColor=#23445d;align=center;strokeWidth=3;" parent="1" vertex="1">
          <mxGeometry x="662.6578947368422" y="2894.2653508771928" width="311.84210526315786" height="259.86842105263156" as="geometry" />
        </mxCell>
        <mxCell id="649" value="&lt;font style=&quot;font-size: 23px&quot;&gt;DE View&lt;/font&gt;" style="shape=hexagon;perimeter=hexagonPerimeter2;whiteSpace=wrap;html=1;shadow=0;labelBackgroundColor=none;strokeColor=#23445D;fillColor=#FFFFFF;gradientColor=none;fontFamily=Helvetica;fontSize=23;fontColor=#23445d;align=center;strokeWidth=3;" parent="1" vertex="1">
          <mxGeometry x="428.57894736842115" y="3024.7982456140344" width="311.84210526315786" height="259.86842105263156" as="geometry" />
        </mxCell>
        <mxCell id="650" value="&lt;font style=&quot;font-size: 23px&quot;&gt;Protein Group View&lt;/font&gt;" style="shape=hexagon;perimeter=hexagonPerimeter2;whiteSpace=wrap;html=1;shadow=0;labelBackgroundColor=none;strokeColor=#23445D;fillColor=#FFFFFF;gradientColor=none;fontFamily=Helvetica;fontSize=23;fontColor=#23445d;align=center;strokeWidth=3;" parent="1" vertex="1">
          <mxGeometry x="194.5" y="2894.2653508771928" width="311.84210526315786" height="259.86842105263156" as="geometry" />
        </mxCell>
        <mxCell id="651" value="&lt;font style=&quot;font-size: 23px;&quot;&gt;MS View&lt;/font&gt;" style="shape=hexagon;perimeter=hexagonPerimeter2;whiteSpace=wrap;html=1;shadow=0;labelBackgroundColor=none;strokeColor=#23445D;fillColor=#ffffff;gradientColor=none;fontFamily=Helvetica;fontSize=23;fontColor=#23445D;align=center;strokeWidth=3;" parent="1" vertex="1">
          <mxGeometry x="194.5000000000001" y="2634.1995614035086" width="311.84210526315786" height="259.86842105263156" as="geometry" />
        </mxCell>
      </root>
    </mxGraphModel>
  </diagram>
</mxfile>
